# xmcd
#
# Track frame offsets: 
#        150
#        14480
#        25962
#        38570
#        50122
#        62147
#        74305
#        89892
#        106612
#        119965
#
# Disc length: 1778 seconds
#
# Revision: 0
# Processed by: cddbd v1.5.2PL0 Copyright (c) Steve Scherf et al.
# Submitted via: ExactAudioCopy v1.0b1
#
DISCID=9106f00a
DTITLE=Bobby Don Bloodworth - 'Pure Bobby Don Bloodworth'
DYEAR=2001
DGENRE=Country
TTITLE0=Blueridge Moonshine Flyer
TTITLE1=Love On The Loose
TTITLE2=The Beat Of Two Hearts
TTITLE3=King Of The Cowboys
TTITLE4=Woman Get Out Of My Song
TTITLE5=There's A Train
TTITLE6=Cool Mullins And Idaho Jake
TTITLE7=Long Black Granite Wall
TTITLE8=Sunday On A Mountain
TTITLE9=Numbers On The Stone
EXTD=Denny Music Group\nDMG 04-01
EXTT0=
EXTT1=
EXTT2=
EXTT3=
EXTT4=
EXTT5=
EXTT6=
EXTT7=
EXTT8=
EXTT9=
PLAYORDER=
